<?xml version="1.0" encoding="UTF-8" standalone="no"?>
<!DOCTYPE svg PUBLIC "-//W3C//DTD SVG 1.1//EN"
 "http://www.w3.org/Graphics/SVG/1.1/DTD/svg11.dtd">
<!-- Generated by graphviz version 2.40.1 (20161225.0304)
 -->
<!-- Title: %0 Pages: 1 -->
<svg width="732pt" height="692pt"
 viewBox="0.00 0.00 732.00 692.00" xmlns="http://www.w3.org/2000/svg" xmlns:xlink="http://www.w3.org/1999/xlink">
<g id="graph0" class="graph" transform="scale(1 1) rotate(0) translate(4 688)">
<title>%0</title>
<polygon fill="#ffffff" stroke="transparent" points="-4,4 -4,-688 728,-688 728,4 -4,4"/>
<!-- species -->
<g id="node1" class="node">
<title>species</title>
<text text-anchor="start" x="226" y="-669.4" font-family="Times,serif" font-size="14.00" fill="#000000">species</text>
<text text-anchor="start" x="231" y="-644.4" font-family="Times,serif" font-size="14.00" fill="#000000">species_id</text>
<text text-anchor="start" x="230.6844" y="-622.4" font-family="Times,serif" font-size="14.00" fill="#000000">scientific_name</text>
<text text-anchor="start" x="324.7248" y="-624.6" font-family="Times,serif" font-size="8.00" fill="#000000">AK1 </text>
<text text-anchor="start" x="231" y="-600.4" font-family="Times,serif" font-size="14.00" fill="#000000">diet</text>
<text text-anchor="start" x="231" y="-578.4" font-family="Times,serif" font-size="14.00" fill="#000000">can_move</text>
<polygon fill="#000000" stroke="#000000" points="226,-638 226,-638 322,-638 322,-638 226,-638"/>
<polygon fill="#000000" stroke="#000000" points="322,-638 322,-638 347,-638 347,-638 322,-638"/>
<polygon fill="none" stroke="#000000" points="226,-570 226,-662 347,-662 347,-570 226,-570"/>
</g>
<!-- biome -->
<g id="node7" class="node">
<title>biome</title>
<text text-anchor="start" x="138" y="-505.4" font-family="Times,serif" font-size="14.00" fill="#000000">biome</text>
<text text-anchor="start" x="143" y="-480.4" font-family="Times,serif" font-size="14.00" fill="#000000">biome_id</text>
<text text-anchor="start" x="142.5743" y="-458.4" font-family="Times,serif" font-size="14.00" fill="#000000">temperature</text>
<text text-anchor="start" x="142.9495" y="-436.4" font-family="Times,serif" font-size="14.00" fill="#000000">biome_type</text>
<polygon fill="#000000" stroke="#000000" points="138,-474 138,-474 212,-474 212,-474 138,-474"/>
<polygon fill="#000000" stroke="#000000" points="212,-474 212,-474 220,-474 220,-474 212,-474"/>
<polygon fill="none" stroke="#000000" points="138,-428 138,-498 220,-498 220,-428 138,-428"/>
</g>
<!-- species&#45;&gt;biome -->
<g id="edge12" class="edge">
<title>species&#45;&gt;biome</title>
<path fill="none" stroke="#c0c0c0" d="M254.75,-567.8449C254.75,-540.1573 254.75,-513 254.75,-513 254.75,-513 239.1968,-513 222.1856,-513"/>
<text text-anchor="start" x="185" y="-541" font-family="Times,serif" font-size="10.00" fill="#000000">lives in / supports</text>
<text text-anchor="middle" x="229.6329" y="-517.2" font-family="Times,serif" font-size="14.00" fill="#000000">1+</text>
<text text-anchor="middle" x="247.3027" y="-555.2449" font-family="Times,serif" font-size="14.00" fill="#000000">1+</text>
</g>
<!-- predation -->
<g id="node11" class="node">
<title>predation</title>
<text text-anchor="start" x="209" y="-363.4" font-family="Times,serif" font-size="14.00" fill="#000000">predation</text>
<text text-anchor="start" x="213.5771" y="-338.4" font-family="Times,serif" font-size="14.00" fill="#000000">predator / species_id</text>
<text text-anchor="start" x="334.8888" y="-340.6" font-family="Times,serif" font-size="8.00" fill="#000000">FK </text>
<text text-anchor="start" x="214" y="-316.4" font-family="Times,serif" font-size="14.00" fill="#000000">prey / species_id</text>
<text text-anchor="start" x="334.8888" y="-318.6" font-family="Times,serif" font-size="8.00" fill="#000000">FK </text>
<text text-anchor="start" x="214" y="-294.4" font-family="Times,serif" font-size="14.00" fill="#000000">biome_id</text>
<text text-anchor="start" x="334.8888" y="-296.6" font-family="Times,serif" font-size="8.00" fill="#000000">FK </text>
<path fill="none" stroke="#000000" d="M221,-286C221,-286 340,-286 340,-286 346,-286 352,-292 352,-298 352,-298 352,-344 352,-344 352,-350 346,-356 340,-356 340,-356 221,-356 221,-356 215,-356 209,-350 209,-344 209,-344 209,-298 209,-298 209,-292 215,-286 221,-286"/>
</g>
<!-- species&#45;&gt;predation -->
<g id="edge13" class="edge">
<title>species&#45;&gt;predation</title>
<path fill="none" stroke="#c0c0c0" d="M286,-567.7175C286,-512.3058 286,-429.986 286,-378.4634"/>
<text text-anchor="start" x="286" y="-476.0904" font-family="Times,serif" font-size="10.00" fill="#000000">is predator / has predator</text>
<text text-anchor="middle" x="280.75" y="-382.6634" font-family="Times,serif" font-size="14.00" fill="#000000">∗</text>
</g>
<!-- species&#45;&gt;predation -->
<g id="edge14" class="edge">
<title>species&#45;&gt;predation</title>
<path fill="none" stroke="#c0c0c0" d="M317.25,-567.7175C317.25,-512.3058 317.25,-429.986 317.25,-378.4634"/>
<text text-anchor="start" x="248.939" y="-464.0904" font-family="Times,serif" font-size="10.00" fill="#000000">is prey / has prey</text>
<text text-anchor="middle" x="312" y="-382.6634" font-family="Times,serif" font-size="14.00" fill="#000000">∗</text>
</g>
<!-- subtype1 -->
<g id="node12" class="node">
<title>subtype1</title>
<ellipse fill="none" stroke="#000000" cx="425" cy="-473" rx="29.1114" ry="29.1114"/>
<ellipse fill="none" stroke="#000000" cx="425" cy="-473" rx="33.1186" ry="33.1186"/>
<text text-anchor="start" x="404.452" y="-470" font-family="Times,serif" font-size="10.00" fill="#000000">can_move</text>
</g>
<!-- species&#45;&gt;subtype1 -->
<g id="edge1" class="edge">
<title>species&#45;&gt;subtype1</title>
<path fill="none" stroke="#c0c0c0" d="M348.5873,-626C385.4815,-626 425,-626 425,-626 425,-626 425,-551.1973 425,-506.1987"/>
</g>
<!-- stationary_species -->
<g id="node2" class="node">
<title>stationary_species</title>
<text text-anchor="start" x="373.6851" y="-341.4" font-family="Times,serif" font-size="14.00" fill="#000000">stationary_species</text>
<text text-anchor="start" x="379" y="-316.4" font-family="Times,serif" font-size="14.00" fill="#000000">species_id</text>
<text text-anchor="start" x="451" y="-318.6" font-family="Times,serif" font-size="8.00" fill="#000000">FK </text>
<path fill="none" stroke="#000000" d="M382.6667,-308C382.6667,-308 467.3333,-308 467.3333,-308 471.6667,-308 476,-312.3333 476,-316.6667 476,-316.6667 476,-325.3333 476,-325.3333 476,-329.6667 471.6667,-334 467.3333,-334 467.3333,-334 382.6667,-334 382.6667,-334 378.3333,-334 374,-329.6667 374,-325.3333 374,-325.3333 374,-316.6667 374,-316.6667 374,-312.3333 378.3333,-308 382.6667,-308"/>
</g>
<!-- moving_species -->
<g id="node3" class="node">
<title>moving_species</title>
<text text-anchor="start" x="497.8976" y="-341.4" font-family="Times,serif" font-size="14.00" fill="#000000">moving_species</text>
<text text-anchor="start" x="503" y="-316.4" font-family="Times,serif" font-size="14.00" fill="#000000">species_id</text>
<text text-anchor="start" x="569" y="-318.6" font-family="Times,serif" font-size="8.00" fill="#000000">FK </text>
<path fill="none" stroke="#000000" d="M506.6667,-308C506.6667,-308 579.3333,-308 579.3333,-308 583.6667,-308 588,-312.3333 588,-316.6667 588,-316.6667 588,-325.3333 588,-325.3333 588,-329.6667 583.6667,-334 579.3333,-334 579.3333,-334 506.6667,-334 506.6667,-334 502.3333,-334 498,-329.6667 498,-325.3333 498,-325.3333 498,-316.6667 498,-316.6667 498,-312.3333 502.3333,-308 506.6667,-308"/>
</g>
<!-- subtype2 -->
<g id="node13" class="node">
<title>subtype2</title>
<ellipse fill="none" stroke="#000000" cx="543" cy="-200" rx="7" ry="7"/>
</g>
<!-- moving_species&#45;&gt;subtype2 -->
<g id="edge4" class="edge">
<title>moving_species&#45;&gt;subtype2</title>
<path fill="none" stroke="#c0c0c0" d="M543,-305.7419C543,-275.1098 543,-225.306 543,-207.02"/>
</g>
<!-- crawling_species -->
<g id="node4" class="node">
<title>crawling_species</title>
<text text-anchor="start" x="364" y="-101.4" font-family="Times,serif" font-size="14.00" fill="#000000">crawling_species</text>
<text text-anchor="start" x="369" y="-76.4" font-family="Times,serif" font-size="14.00" fill="#000000">species_id</text>
<text text-anchor="start" x="452.8888" y="-78.6" font-family="Times,serif" font-size="8.00" fill="#000000">FK </text>
<text text-anchor="start" x="368.7328" y="-54.4" font-family="Times,serif" font-size="14.00" fill="#000000">ground_speed</text>
<text text-anchor="start" x="369" y="-32.4" font-family="Times,serif" font-size="14.00" fill="#000000">can_climb</text>
<text text-anchor="start" x="369" y="-10.4" font-family="Times,serif" font-size="14.00" fill="#000000">can_dig</text>
<polygon fill="#000000" stroke="#000000" points="364,-70 364,-70 450,-70 450,-70 364,-70"/>
<polygon fill="#000000" stroke="#000000" points="450,-70 450,-70 470,-70 470,-70 450,-70"/>
<path fill="none" stroke="#000000" d="M376,-2C376,-2 458,-2 458,-2 464,-2 470,-8 470,-14 470,-14 470,-82 470,-82 470,-88 464,-94 458,-94 458,-94 376,-94 376,-94 370,-94 364,-88 364,-82 364,-82 364,-14 364,-14 364,-8 370,-2 376,-2"/>
</g>
<!-- flying_species -->
<g id="node5" class="node">
<title>flying_species</title>
<text text-anchor="start" x="493" y="-90.4" font-family="Times,serif" font-size="14.00" fill="#000000">flying_species</text>
<text text-anchor="start" x="498" y="-65.4" font-family="Times,serif" font-size="14.00" fill="#000000">species_id</text>
<text text-anchor="start" x="576.8888" y="-67.6" font-family="Times,serif" font-size="8.00" fill="#000000">FK </text>
<text text-anchor="start" x="498" y="-43.4" font-family="Times,serif" font-size="14.00" fill="#000000">flying_speed</text>
<text text-anchor="start" x="497.9516" y="-21.4" font-family="Times,serif" font-size="14.00" fill="#000000">max_altitude</text>
<polygon fill="#000000" stroke="#000000" points="493,-59 493,-59 574,-59 574,-59 493,-59"/>
<polygon fill="#000000" stroke="#000000" points="574,-59 574,-59 594,-59 594,-59 574,-59"/>
<path fill="none" stroke="#000000" d="M505,-13C505,-13 582,-13 582,-13 588,-13 594,-19 594,-25 594,-25 594,-71 594,-71 594,-77 588,-83 582,-83 582,-83 505,-83 505,-83 499,-83 493,-77 493,-71 493,-71 493,-25 493,-25 493,-19 499,-13 505,-13"/>
</g>
<!-- swimming_species -->
<g id="node6" class="node">
<title>swimming_species</title>
<text text-anchor="start" x="615.7314" y="-90.4" font-family="Times,serif" font-size="14.00" fill="#000000">swimming_species</text>
<text text-anchor="start" x="621" y="-65.4" font-family="Times,serif" font-size="14.00" fill="#000000">species_id</text>
<text text-anchor="start" x="701" y="-67.6" font-family="Times,serif" font-size="8.00" fill="#000000">FK </text>
<text text-anchor="start" x="621" y="-43.4" font-family="Times,serif" font-size="14.00" fill="#000000">swim_speed</text>
<text text-anchor="start" x="621" y="-21.4" font-family="Times,serif" font-size="14.00" fill="#000000">max_depth</text>
<polygon fill="#000000" stroke="#000000" points="616,-59 616,-59 698,-59 698,-59 616,-59"/>
<polygon fill="#000000" stroke="#000000" points="698,-59 698,-59 722,-59 722,-59 698,-59"/>
<path fill="none" stroke="#000000" d="M628,-13C628,-13 710,-13 710,-13 716,-13 722,-19 722,-25 722,-25 722,-71 722,-71 722,-77 716,-83 710,-83 710,-83 628,-83 628,-83 622,-83 616,-77 616,-71 616,-71 616,-25 616,-25 616,-19 622,-13 628,-13"/>
</g>
<!-- biome&#45;&gt;predation -->
<g id="edge15" class="edge">
<title>biome&#45;&gt;predation</title>
<path fill="none" stroke="#c0c0c0" d="M214.25,-425.7161C214.25,-410.387 214.25,-393.3915 214.25,-378.0775"/>
<text text-anchor="start" x="179" y="-399" font-family="Times,serif" font-size="10.00" fill="#000000">facilitates / occurs in</text>
<text text-anchor="middle" x="209" y="-382.2775" font-family="Times,serif" font-size="14.00" fill="#000000">∗</text>
</g>
<!-- subtype3 -->
<g id="node14" class="node">
<title>subtype3</title>
<ellipse fill="none" stroke="#000000" cx="146" cy="-331" rx="33.2846" ry="33.2846"/>
<ellipse fill="none" stroke="#000000" cx="146" cy="-331" rx="37.2724" ry="37.2724"/>
<text text-anchor="start" x="122.3925" y="-328" font-family="Times,serif" font-size="10.00" fill="#000000">biome_type</text>
</g>
<!-- biome&#45;&gt;subtype3 -->
<g id="edge8" class="edge">
<title>biome&#45;&gt;subtype3</title>
<path fill="none" stroke="#c0c0c0" d="M159.693,-425.7161C159.693,-406.1916 159.693,-383.9639 159.693,-365.9503"/>
</g>
<!-- surface_biome -->
<g id="node8" class="node">
<title>surface_biome</title>
<text text-anchor="start" x="1.7973" y="-232.4" font-family="Times,serif" font-size="14.00" fill="#000000">surface_biome</text>
<text text-anchor="start" x="7" y="-207.4" font-family="Times,serif" font-size="14.00" fill="#000000">biome_id</text>
<text text-anchor="start" x="66" y="-209.6" font-family="Times,serif" font-size="8.00" fill="#000000">FK </text>
<text text-anchor="start" x="7" y="-185.4" font-family="Times,serif" font-size="14.00" fill="#000000">altitude</text>
<text text-anchor="start" x="7" y="-163.4" font-family="Times,serif" font-size="14.00" fill="#000000">humidity</text>
<polygon fill="#000000" stroke="#000000" points="2,-201 2,-201 63,-201 63,-201 2,-201"/>
<polygon fill="#000000" stroke="#000000" points="63,-201 63,-201 84,-201 84,-201 63,-201"/>
<path fill="none" stroke="#000000" d="M14,-155C14,-155 72,-155 72,-155 78,-155 84,-161 84,-167 84,-167 84,-213 84,-213 84,-219 78,-225 72,-225 72,-225 14,-225 14,-225 8,-225 2,-219 2,-213 2,-213 2,-167 2,-167 2,-161 8,-155 14,-155"/>
</g>
<!-- ocean_biome -->
<g id="node9" class="node">
<title>ocean_biome</title>
<text text-anchor="start" x="106" y="-232.4" font-family="Times,serif" font-size="14.00" fill="#000000">ocean_biome</text>
<text text-anchor="start" x="110.5568" y="-207.4" font-family="Times,serif" font-size="14.00" fill="#000000">biome_id</text>
<text text-anchor="start" x="168.8888" y="-209.6" font-family="Times,serif" font-size="8.00" fill="#000000">FK </text>
<text text-anchor="start" x="111" y="-185.4" font-family="Times,serif" font-size="14.00" fill="#000000">depth</text>
<text text-anchor="start" x="111" y="-163.4" font-family="Times,serif" font-size="14.00" fill="#000000">salinity</text>
<polygon fill="#000000" stroke="#000000" points="106,-201 106,-201 166,-201 166,-201 106,-201"/>
<polygon fill="#000000" stroke="#000000" points="166,-201 166,-201 186,-201 186,-201 166,-201"/>
<path fill="none" stroke="#000000" d="M118,-155C118,-155 174,-155 174,-155 180,-155 186,-161 186,-167 186,-167 186,-213 186,-213 186,-219 180,-225 174,-225 174,-225 118,-225 118,-225 112,-225 106,-219 106,-213 106,-213 106,-167 106,-167 106,-161 112,-155 118,-155"/>
</g>
<!-- underground_biome -->
<g id="node10" class="node">
<title>underground_biome</title>
<text text-anchor="start" x="208.7342" y="-210.4" font-family="Times,serif" font-size="14.00" fill="#000000">underground_biome</text>
<text text-anchor="start" x="214" y="-185.4" font-family="Times,serif" font-size="14.00" fill="#000000">biome_id</text>
<text text-anchor="start" x="289" y="-187.6" font-family="Times,serif" font-size="8.00" fill="#000000">FK </text>
<path fill="none" stroke="#000000" d="M217.6667,-177C217.6667,-177 313.3333,-177 313.3333,-177 317.6667,-177 322,-181.3333 322,-185.6667 322,-185.6667 322,-194.3333 322,-194.3333 322,-198.6667 317.6667,-203 313.3333,-203 313.3333,-203 217.6667,-203 217.6667,-203 213.3333,-203 209,-198.6667 209,-194.3333 209,-194.3333 209,-185.6667 209,-185.6667 209,-181.3333 213.3333,-177 217.6667,-177"/>
</g>
<!-- subtype1&#45;&gt;stationary_species -->
<g id="edge2" class="edge">
<title>subtype1&#45;&gt;stationary_species</title>
<path fill="none" stroke="#c0c0c0" d="M425,-439.7073C425,-414.1313 425,-379.3589 425,-356.0956"/>
</g>
<!-- subtype1&#45;&gt;moving_species -->
<g id="edge3" class="edge">
<title>subtype1&#45;&gt;moving_species</title>
<path fill="none" stroke="#c0c0c0" d="M458.1836,-473C493.0851,-473 543,-473 543,-473 543,-473 543,-396.8253 543,-356.0599"/>
</g>
<!-- subtype2&#45;&gt;crawling_species -->
<g id="edge5" class="edge">
<title>subtype2&#45;&gt;crawling_species</title>
<path fill="none" stroke="#c0c0c0" d="M540.6667,-193.2354C540.6667,-172.3048 540.6667,-110 540.6667,-110 540.6667,-110 505.2495,-110 472.3226,-110"/>
</g>
<!-- subtype2&#45;&gt;flying_species -->
<g id="edge6" class="edge">
<title>subtype2&#45;&gt;flying_species</title>
<path fill="none" stroke="#c0c0c0" d="M545.3333,-193.151C545.3333,-177.4173 545.3333,-137.5552 545.3333,-105.173"/>
</g>
<!-- subtype2&#45;&gt;swimming_species -->
<g id="edge7" class="edge">
<title>subtype2&#45;&gt;swimming_species</title>
<path fill="none" stroke="#c0c0c0" d="M550.1353,-200C576.7898,-200 669,-200 669,-200 669,-200 669,-146.5918 669,-105.2839"/>
</g>
<!-- subtype3&#45;&gt;surface_biome -->
<g id="edge9" class="edge">
<title>subtype3&#45;&gt;surface_biome</title>
<path fill="none" stroke="#c0c0c0" d="M108.5233,-331C79.073,-331 43,-331 43,-331 43,-331 43,-284.8174 43,-247.294"/>
</g>
<!-- subtype3&#45;&gt;ocean_biome -->
<g id="edge10" class="edge">
<title>subtype3&#45;&gt;ocean_biome</title>
<path fill="none" stroke="#c0c0c0" d="M146,-293.4607C146,-279.0955 146,-262.5215 146,-247.3562"/>
</g>
<!-- subtype3&#45;&gt;underground_biome -->
<g id="edge11" class="edge">
<title>subtype3&#45;&gt;underground_biome</title>
<path fill="none" stroke="#c0c0c0" d="M183.5159,-331C191.3309,-331 197.25,-331 197.25,-331 197.25,-331 197.25,-200 197.25,-200 197.25,-200 200.8486,-200 206.3871,-200"/>
</g>
</g>
</svg>
